<?xml version="1.0" standalone="no"?>
<!DOCTYPE svg PUBLIC "-//W3C//DTD SVG 20010904//EN"
 "http://www.w3.org/TR/2001/REC-SVG-20010904/DTD/svg10.dtd">
<svg version="1.0" xmlns="http://www.w3.org/2000/svg"
 width="400.000000pt" height="400.000000pt" viewBox="0 0 400.000000 400.000000"
 preserveAspectRatio="xMidYMid meet">
<metadata>
Created by potrace 1.14, written by Peter Selinger 2001-2017
</metadata>
<g transform="translate(0.000000,400.000000) scale(0.100000,-0.100000)"
fill="#000000" stroke="none">
<path d="M2023 3985 c-18 -8 -33 -19 -33 -25 0 -7 6 -8 18 -1 14 7 19 6 19 -4
0 -8 -4 -12 -8 -9 -4 2 -21 -7 -37 -21 -16 -13 -31 -22 -34 -20 -3 3 -11 -7
-19 -23 -8 -15 -20 -33 -26 -40 -7 -7 -13 -18 -13 -23 0 -6 -4 -7 -10 -4 -5 3
-9 -2 -8 -12 3 -40 -2 -52 -21 -48 -14 2 -18 -1 -14 -11 3 -7 9 -11 14 -8 5 3
9 0 9 -6 0 -7 -8 -9 -19 -5 -16 5 -20 0 -24 -27 -4 -30 -5 -31 -12 -11 -4 13
-12 20 -17 17 -5 -3 -7 -13 -4 -21 3 -8 2 -12 -3 -8 -5 3 -12 -8 -16 -25 -4
-16 -10 -30 -15 -30 -5 0 -12 -10 -16 -22 -4 -13 -14 -28 -22 -34 -9 -7 -13
-19 -10 -32 5 -19 3 -20 -13 -11 -15 8 -19 6 -19 -6 0 -9 -5 -13 -10 -10 -6 4
-8 10 -6 13 2 4 -5 19 -16 32 l-20 25 5 -30 c5 -30 -33 -102 -46 -88 -4 3 -7
1 -7 -5 0 -17 -28 -3 -33 16 -3 10 -5 6 -6 -9 -1 -29 -40 -73 -42 -48 -1 8 -5
3 -9 -11 -5 -15 -8 -18 -9 -9 -2 33 -50 30 -51 -2 0 -7 -50 -32 -67 -33 -7 -1
-26 -16 -42 -33 -16 -18 -35 -33 -41 -33 -6 0 -8 -4 -5 -10 3 -5 1 -10 -5 -10
-6 0 -9 -4 -6 -9 3 -5 -1 -11 -9 -15 -8 -3 -15 -12 -15 -21 0 -8 -7 -15 -16
-15 -9 0 -12 5 -8 13 5 9 4 9 -5 1 -17 -16 -4 -40 30 -54 16 -7 29 -16 29 -21
0 -15 -30 -10 -47 6 -8 9 -18 13 -21 10 -3 -3 0 -11 6 -17 18 -18 15 -28 -8
-28 -11 0 -20 7 -20 15 0 24 -14 17 -34 -15 -9 -17 -22 -28 -27 -25 -5 4 -9
-4 -10 -17 -1 -23 -1 -23 -9 2 l-8 25 -7 -23 c-6 -18 -10 -20 -16 -10 -7 10
-11 11 -17 0 -5 -7 -16 -10 -25 -6 -12 4 -17 1 -17 -14 0 -17 -4 -19 -32 -13
-62 14 -350 6 -388 -11 -38 -16 -49 -17 -67 -5 -8 5 -13 4 -13 -3 0 -6 -4 -8
-10 -5 -34 21 47 -130 98 -183 62 -64 112 -123 112 -133 0 -4 -15 -10 -33 -14
-17 -4 -67 -18 -109 -32 -60 -20 -78 -30 -78 -44 0 -11 5 -19 10 -19 6 0 10
-5 10 -11 0 -6 -7 -9 -15 -5 -8 3 -16 1 -16 -4 -1 -6 -2 -16 -3 -22 0 -7 -8
-13 -16 -13 -8 0 -14 6 -12 13 1 6 -5 12 -13 12 -18 0 -15 -42 3 -48 14 -4 5
-53 -12 -64 -6 -4 -32 -8 -57 -8 -30 0 -51 -6 -60 -16 -10 -12 -24 -15 -57
-10 -35 5 -50 2 -72 -14 -15 -11 -42 -20 -58 -20 -32 0 -56 -30 -24 -30 16 -1
16 -2 -1 -14 -10 -8 -17 -18 -16 -23 1 -4 -7 -13 -19 -18 -54 -28 -52 -17 -52
-307 0 -176 3 -267 10 -263 16 10 280 -108 280 -125 0 -5 -5 -10 -11 -10 -5 0
-7 4 -4 10 3 5 -4 10 -17 10 -13 0 -41 2 -63 4 -22 3 -48 5 -57 5 -11 1 -15 6
-12 15 3 8 1 17 -5 21 -6 3 -11 1 -11 -4 0 -17 -40 -13 -47 5 -5 13 -7 13 -14
2 -6 -8 -12 -9 -16 -3 -18 24 -33 14 -33 -21 0 -29 3 -35 16 -30 14 5 15 4 5
-8 -15 -17 -8 -22 47 -31 23 -4 42 -10 42 -15 0 -4 9 -6 20 -3 18 5 19 2 11
-18 -6 -18 -16 -24 -35 -22 -14 1 -26 -3 -26 -9 0 -6 -15 1 -34 16 -29 21 -35
23 -40 10 -3 -9 -6 -119 -6 -245 0 -192 2 -229 14 -229 8 0 17 8 19 18 3 12 5
10 7 -8 1 -23 2 -23 10 -5 5 11 9 14 9 8 1 -7 7 -13 15 -13 8 0 17 -6 19 -12
4 -10 7 -10 15 0 7 10 14 8 36 -9 16 -12 36 -19 49 -17 13 3 28 -1 35 -8 8 -9
21 -10 44 -3 18 5 34 9 35 9 1 0 0 -7 -3 -15 -5 -11 1 -15 19 -15 14 0 29 5
32 10 3 6 21 8 39 6 19 -2 50 4 76 17 83 39 134 52 190 50 30 -2 65 -3 77 -4
13 -1 21 -5 18 -9 -6 -10 31 -24 43 -17 9 6 44 -18 42 -30 0 -4 14 -11 32 -14
l33 -6 -40 -3 c-38 -2 -39 -3 -10 -9 20 -4 26 -9 18 -14 -20 -13 -15 -37 7
-37 10 0 23 -6 27 -13 4 -8 21 -22 38 -33 45 -29 65 -47 59 -55 -2 -5 5 -13
16 -19 16 -8 20 -8 18 2 -2 7 -7 16 -12 19 -4 4 -3 9 2 13 6 3 13 -3 17 -14 3
-11 12 -20 18 -20 7 0 6 -4 -3 -10 -20 -13 -72 -13 -105 0 -16 6 -24 6 -20 0
9 -15 -60 -23 -85 -10 -14 7 -20 8 -16 1 6 -9 -90 -7 -121 4 -6 2 -14 -1 -17
-8 -3 -9 -7 -9 -13 -1 -7 11 -60 14 -253 15 -62 1 -87 -1 -225 -17 -33 -4 -88
-8 -121 -8 -34 -1 -60 -4 -57 -8 2 -5 -3 -8 -11 -8 -10 0 -16 -9 -16 -25 0
-14 1 -25 3 -25 1 0 33 9 70 19 37 11 65 16 62 12 -5 -10 87 -1 95 8 12 15
146 20 256 9 28 -3 76 -17 106 -32 58 -28 175 -44 206 -27 9 5 93 11 185 14
138 4 169 2 174 -9 3 -8 11 -14 19 -14 8 0 14 -6 14 -12 0 -9 4 -8 10 2 7 11
10 11 10 2 0 -7 8 -12 18 -10 11 2 16 -2 14 -12 -3 -12 -1 -12 9 -3 10 10 15
9 26 -5 14 -16 14 -16 9 1 -3 9 -1 17 4 17 6 0 10 -5 10 -12 0 -6 3 -9 6 -6 3
4 14 -2 23 -11 12 -12 32 -17 64 -17 26 1 47 -2 47 -6 0 -5 -6 -8 -12 -8 -9 0
-8 -3 2 -10 9 -6 17 -5 23 3 7 9 10 9 14 0 2 -7 11 -13 19 -13 8 0 13 -3 13
-8 -4 -23 4 -32 27 -32 14 0 32 -6 40 -14 18 -19 18 -26 -1 -26 -8 0 -15 -4
-15 -10 0 -5 15 -8 35 -5 19 2 35 0 35 -5 0 -4 3 -15 6 -24 4 -10 -2 -17 -20
-22 -31 -7 -35 -23 -5 -21 11 1 31 14 44 29 13 15 28 28 34 28 5 0 14 7 19 16
11 19 22 20 33 2 7 -10 12 -11 28 -1 11 7 28 10 37 6 12 -5 15 -3 9 6 -5 10
-2 11 14 6 14 -4 31 1 50 14 16 12 37 21 48 21 15 0 16 2 3 10 -12 7 -12 11
-2 20 6 5 10 7 7 4 -7 -10 24 -36 35 -29 6 4 10 -6 10 -24 0 -21 5 -31 16 -31
8 0 12 -5 8 -11 -3 -6 7 -4 24 5 16 8 32 12 36 9 4 -4 13 -8 20 -9 23 -3 76
-47 76 -62 0 -7 7 -20 15 -28 16 -16 21 -39 7 -30 -5 3 -9 -8 -10 -25 0 -16 3
-27 9 -24 5 3 6 -1 3 -9 -7 -18 -32 -28 -46 -19 -7 3 -8 1 -4 -5 10 -17 -9
-15 -23 2 -9 11 -9 15 1 19 10 4 10 6 1 6 -7 1 -13 6 -13 12 0 6 -6 17 -14 24
-12 12 -15 12 -22 -3 -4 -9 -6 -20 -6 -24 1 -5 -3 -8 -8 -8 -16 0 -28 41 -23
76 6 40 -12 52 -32 21 -14 -22 -14 -28 0 -68 15 -39 31 -123 18 -91 -7 17 -26
15 -20 -2 3 -8 -2 -16 -14 -19 -27 -7 -59 3 -59 19 0 8 -4 14 -10 14 -5 0 -10
9 -10 21 0 13 -4 18 -12 13 -8 -5 -9 -2 -5 9 7 18 -8 24 -18 7 -4 -6 -11 -8
-16 -5 -15 10 -10 -12 6 -25 10 -8 13 -21 9 -33 -4 -12 -2 -17 4 -13 6 3 14 1
18 -5 4 -7 3 -9 -4 -5 -5 3 -12 1 -14 -5 -5 -16 -38 1 -38 21 0 10 -4 20 -9
22 -17 5 -19 62 -4 91 8 15 11 32 8 37 -3 6 -1 10 4 10 6 0 11 10 11 21 0 34
-28 5 -40 -42 -6 -22 -17 -39 -25 -39 -9 0 -17 -15 -20 -37 -8 -49 -26 -85
-39 -79 -6 2 -10 9 -9 15 2 6 -4 11 -12 11 -18 0 -37 34 -26 46 9 9 23 84 16
84 -7 0 -55 -50 -56 -58 -1 -14 -7 -37 -13 -52 -12 -32 48 -73 134 -90 63 -13
200 -15 290 -5 32 4 41 3 30 -5 -9 -6 -10 -10 -3 -10 6 0 18 9 26 20 8 11 16
17 19 15 3 -3 24 -2 46 3 29 7 42 6 46 -2 3 -7 5 -6 5 2 1 7 6 10 12 6 7 -4
10 -1 7 7 -3 8 2 20 11 27 14 11 14 11 -1 6 -10 -3 -18 -1 -18 5 0 6 8 11 17
11 10 0 35 19 56 42 22 24 37 35 33 25 -4 -11 -2 -16 5 -11 6 3 8 15 6 25 -7
25 42 55 94 58 11 0 17 6 14 11 -3 6 3 10 14 10 12 0 21 4 21 9 0 11 37 23 77
23 22 0 34 6 38 18 3 10 15 20 25 23 24 6 26 -8 4 -21 -14 -8 -14 -10 -1 -15
10 -4 17 2 21 18 4 15 13 23 28 23 13 0 43 3 67 8 26 4 42 3 39 -2 -3 -5 12
-10 33 -11 22 0 47 -4 57 -9 29 -12 43 -14 182 -16 133 -2 249 10 286 30 10 6
30 22 43 36 21 22 22 26 7 32 -10 4 -16 17 -16 35 0 16 -4 29 -10 29 -5 0 -10
-26 -10 -57 -1 -52 -2 -56 -13 -35 -7 12 -16 20 -19 17 -3 -3 -5 5 -4 17 3 35
-5 42 -21 19 -8 -12 -11 -26 -8 -31 9 -14 -19 -12 -34 3 -10 10 -11 9 -6 -5 8
-21 2 -22 -28 -6 -19 10 -21 9 -9 -4 10 -13 10 -18 1 -24 -8 -4 -9 -3 -5 4 4
7 3 12 -3 12 -6 0 -8 13 -5 33 4 22 3 28 -4 18 -11 -15 -15 -10 -32 42 -8 26
-17 37 -26 33 -8 -3 -14 -1 -14 3 0 5 -9 7 -20 4 -27 -7 -15 -23 17 -23 15 0
24 -3 20 -6 -3 -4 0 -19 8 -35 10 -18 11 -30 5 -34 -6 -4 -8 -11 -5 -16 3 -5
-1 -6 -9 -3 -9 3 -16 10 -16 15 0 5 -7 9 -16 9 -8 0 -13 -4 -10 -8 2 -4 0 -14
-5 -22 -8 -13 -10 -13 -18 -1 -5 8 -14 10 -21 6 -8 -5 -11 -4 -7 2 7 11 -53
63 -72 63 -16 0 -25 61 -10 70 15 10 21 40 8 40 -12 0 -32 48 -31 73 1 15 -2
16 -14 6 -14 -11 -15 -8 -9 24 6 31 4 37 -10 37 -13 0 -15 6 -10 32 5 25 4 29
-4 18 -9 -12 -11 -10 -11 12 0 14 -4 28 -9 30 -6 2 -12 47 -16 102 -3 54 -10
119 -16 145 -9 41 -8 48 10 62 15 13 17 19 8 29 -10 10 -7 11 10 6 12 -4 24
-2 29 5 5 8 3 10 -7 4 -11 -6 -12 -5 -2 5 10 11 15 11 29 -1 14 -11 16 -11 10
0 -6 9 1 21 19 37 16 13 32 24 37 24 4 0 8 10 9 23 0 21 1 21 9 2 l9 -20 1 20
c4 50 70 -251 73 -332 0 -7 4 -13 9 -13 4 0 6 -14 3 -31 -7 -39 2 -69 21 -69
9 0 12 -5 8 -12 -4 -6 1 -17 11 -24 10 -8 16 -17 12 -20 -11 -12 13 -33 31
-27 13 4 14 3 4 -5 -11 -7 -10 -12 3 -26 9 -9 15 -22 12 -29 -3 -9 10 -11 49
-9 38 3 54 0 54 -8 0 -9 10 -11 31 -6 24 5 30 3 26 -8 -4 -10 3 -14 30 -13 23
1 40 -5 48 -16 16 -22 26 -22 18 1 -6 15 -5 15 10 4 9 -8 33 -12 54 -11 32 2
48 13 104 70 49 48 74 67 93 67 14 0 26 -4 26 -9 0 -5 7 -5 17 -2 11 4 14 3 9
-5 -5 -8 2 -12 19 -12 14 0 24 -4 21 -9 -3 -5 10 -8 30 -7 19 1 40 -4 46 -11
6 -7 16 -13 23 -13 6 0 22 -9 35 -20 13 -11 28 -20 33 -20 15 0 -46 59 -60 60
-7 0 -12 3 -11 8 3 10 -70 81 -77 74 -3 -3 -5 2 -5 11 0 9 -6 17 -12 17 -7 1
-27 20 -45 43 -26 34 -29 44 -20 57 10 13 10 13 -4 2 -14 -10 -20 -7 -42 20
-14 18 -44 53 -66 77 -22 24 -38 47 -36 51 3 4 -5 10 -16 13 -12 3 -18 10 -15
15 3 6 -1 12 -9 16 -8 3 -12 12 -9 21 4 10 0 15 -11 15 -11 0 -15 5 -11 16 4
10 2 13 -6 8 -7 -5 -9 0 -6 13 3 13 -1 25 -12 33 -16 12 -18 35 -7 100 3 14 5
29 6 33 0 5 5 6 9 3 7 -4 11 12 12 57 1 10 6 15 12 11 6 -4 9 -1 6 7 -5 11 29
68 51 89 7 6 13 29 14 47 0 7 4 10 8 7 4 -2 10 0 14 6 3 5 -2 10 -11 10 -15 0
-15 2 2 18 10 9 19 24 19 32 0 8 5 14 11 13 5 -1 16 8 24 20 12 20 12 21 -4 8
-15 -12 -16 -12 -9 5 13 36 142 221 157 227 9 4 16 15 16 25 0 11 13 30 30 44
17 14 28 33 28 45 -2 25 59 153 74 153 5 0 18 10 29 23 18 21 19 48 18 630 0
342 -4 607 -9 607 -5 0 -11 -9 -15 -19 -7 -23 -56 -43 -75 -31 -9 6 -6 10 11
13 l24 4 -22 8 c-29 9 -29 22 -2 30 14 5 18 12 14 23 -3 9 -3 13 1 9 4 -4 13
-2 21 4 9 8 13 8 13 1 0 -6 8 -10 19 -9 14 1 18 9 18 39 0 25 -3 35 -11 31 -6
-4 -5 1 2 9 16 20 13 160 -3 150 -5 -3 -5 1 2 9 6 8 12 46 12 86 l0 72 -228 1
c-247 0 -295 -4 -287 -26 3 -8 1 -14 -3 -14 -5 0 -11 5 -13 10 -4 13 -108 -9
-108 -22 0 -4 -9 -8 -19 -8 -11 0 -23 -5 -26 -11 -4 -6 -19 -7 -37 -4 -20 5
-33 2 -41 -7 -7 -8 -34 -23 -61 -33 -40 -15 -50 -15 -57 -4 -13 20 -11 39 4
39 8 0 8 3 -2 9 -8 5 -29 8 -48 6 -35 -2 -36 -1 -15 53 3 9 -17 12 -89 11 -86
-2 -94 -4 -99 -23 -4 -15 -15 -21 -37 -23 -27 -1 -31 2 -28 23 2 24 1 24 -80
24 l-83 0 -11 -31 c-9 -25 -15 -30 -38 -27 -24 3 -28 7 -25 31 l3 27 -70 0
c-51 0 -71 -4 -71 -13 0 -7 -22 -20 -50 -30 -37 -13 -48 -21 -43 -33 5 -12 7
-13 14 -3 12 20 23 2 22 -36 -1 -32 1 -34 23 -29 35 9 77 -21 68 -48 -5 -16
-3 -20 9 -15 19 7 27 -11 20 -46 -3 -17 -15 -29 -34 -36 -16 -5 -29 -15 -29
-20 0 -6 -4 -11 -10 -11 -13 0 -3 62 12 71 10 7 10 9 -1 9 -11 0 -10 4 4 14
11 8 16 19 12 30 -7 19 -27 22 -27 4 0 -13 -44 -38 -66 -38 -7 0 -9 -10 -6
-25 4 -24 22 -36 22 -15 0 6 4 10 9 10 6 0 9 -12 8 -27 -2 -23 4 -29 31 -38
44 -15 60 -31 44 -47 -9 -9 -12 -9 -12 0 0 7 -6 12 -14 12 -10 0 -12 -7 -8
-22 5 -21 4 -22 -11 -9 -9 7 -17 9 -17 4 0 -10 -70 -48 -83 -45 -5 2 -6 -2 -2
-7 4 -7 15 -7 31 -1 35 14 38 13 19 -7 -16 -16 -16 -18 1 -30 16 -12 17 -15 4
-24 -11 -7 -8 -9 15 -7 25 3 31 -1 33 -21 4 -24 -11 -46 -30 -46 -15 0 -17
-127 -2 -132 7 -2 10 5 7 21 -3 13 0 32 6 43 8 14 9 11 4 -16 -4 -25 -3 -32 6
-27 6 4 18 2 26 -4 19 -16 19 -31 0 -24 -10 4 -15 0 -15 -11 0 -13 6 -15 29
-10 17 3 32 2 36 -4 3 -6 0 -11 -8 -11 -8 0 -21 -7 -28 -16 -12 -15 -11 -16
11 -9 14 4 31 12 38 18 10 8 16 7 22 -3 10 -16 4 -30 -13 -30 -7 0 -21 -10
-31 -22 -17 -20 -18 -23 -4 -32 14 -9 14 -12 1 -32 -20 -31 -9 -68 17 -54 34
18 43 11 19 -14 -46 -46 -48 -52 -28 -64 11 -7 19 -23 19 -36 0 -14 8 -32 17
-42 13 -13 14 -19 5 -22 -7 -2 -17 -13 -23 -24 -9 -17 -9 -20 4 -15 9 3 18 -1
21 -9 3 -9 9 -13 14 -11 4 3 16 -1 27 -9 18 -13 17 -14 -12 -8 -20 4 -33 2
-38 -7 -6 -9 -3 -11 9 -6 11 4 15 3 10 -4 -4 -8 1 -9 17 -4 18 5 21 4 9 -4 -8
-6 -24 -8 -35 -5 -14 4 -12 0 8 -13 15 -11 24 -23 20 -26 -3 -4 2 -7 11 -7 25
0 14 -23 -15 -31 -13 -4 -17 -8 -9 -9 8 -1 -3 -6 -25 -10 -49 -10 -57 -6 -46
23 11 30 3 47 -22 48 -17 1 -18 2 -4 6 12 3 15 11 11 29 -3 13 -2 24 3 24 5 0
9 9 10 20 1 11 -3 20 -9 20 -5 0 -7 7 -4 16 5 13 2 15 -14 11 -11 -3 -23 -1
-26 4 -3 5 4 9 15 9 30 0 24 30 -9 43 -12 4 -12 6 2 6 14 1 15 5 5 30 -9 23
-7 34 6 55 19 28 22 40 8 31 -5 -3 -12 -1 -16 5 -4 6 -11 8 -16 5 -5 -4 -5 4
1 19 7 19 6 29 -5 39 -8 8 -11 18 -8 21 4 4 -4 5 -17 4 -19 -3 -25 4 -37 39
-9 26 -19 40 -27 37 -7 -3 -13 2 -13 11 0 8 8 15 17 15 27 0 14 107 -21 168
-10 18 -14 30 -9 27 11 -7 2 46 -9 55 -11 9 -39 74 -57 135 -10 33 -30 87 -46
121 -15 34 -28 66 -28 72 0 7 -4 12 -10 12 -5 0 -10 5 -10 10 0 12 -13 30 -55
73 -16 17 -23 26 -15 19 13 -9 16 -7 15 15 0 32 -11 36 -52 18z m484 -19 c-3
-8 1 -17 9 -20 23 -9 16 -25 -8 -19 -19 4 -20 3 -8 -6 13 -9 13 -11 -2 -11
-10 0 -18 -5 -18 -11 0 -12 58 -3 77 13 7 5 18 8 25 5 8 -4 7 -6 -4 -6 -22 -1
-24 -21 -2 -21 28 0 9 -23 -34 -41 -30 -13 -42 -15 -42 -6 0 7 -9 23 -20 37
-18 24 -19 24 -33 6 -20 -27 -51 -14 -43 18 4 15 1 26 -7 29 -6 2 4 11 23 19
69 31 95 35 87 14z m199 -20 c21 -22 17 -33 -16 -50 -35 -17 -40 -5 -7 20 21
16 18 16 -30 -3 -14 -5 -12 0 6 20 29 31 28 31 47 13z m257 -6 c-3 -12 0 -20
7 -20 17 0 -12 -27 -30 -27 -8 0 -24 -4 -34 -8 -17 -7 -18 -5 -12 21 4 16 8
29 9 29 4 1 62 23 64 24 0 1 -1 -8 -4 -19z m483 -16 c-2 -31 -6 -37 -44 -54
-47 -21 -49 -18 -27 34 12 28 21 36 40 36 14 0 25 5 25 10 0 6 2 10 3 10 2 0
3 -16 3 -36z m107 19 c-7 -2 -19 -2 -25 0 -7 3 -2 5 12 5 14 0 19 -2 13 -5z
m425 -40 c-20 -5 -25 -23 -7 -23 8 0 8 -5 -1 -15 -7 -8 -17 -15 -22 -15 -7 0
-6 5 1 13 6 8 8 17 5 20 -10 10 6 27 24 26 15 -1 15 -2 0 -6z m-1180 -40 c-3
-33 -6 -38 -30 -40 -34 -2 -38 5 -26 37 9 25 10 25 25 5 15 -19 15 -19 9 8 -5
21 -3 27 9 27 13 0 15 -9 13 -37z m282 28 c0 -5 -7 -11 -15 -15 -8 -3 -15 -12
-15 -20 0 -8 -14 -19 -31 -25 -43 -15 -56 -14 -63 4 -3 8 -2 14 2 14 19 -3 26
2 13 10 -9 6 -1 13 30 24 51 18 79 21 79 8z m212 0 c-11 -7 -11 -9 2 -14 18
-7 17 -47 -1 -47 -7 0 -13 -5 -13 -11 0 -10 -68 -4 -79 7 -2 2 8 19 23 39 19
25 35 35 54 35 19 0 23 -3 14 -9z m363 -11 c-3 -5 -11 -10 -16 -10 -6 0 -7 5
-4 10 3 6 11 10 16 10 6 0 7 -4 4 -10z m-131 -25 c3 -9 -1 -18 -10 -22 -13 -5
-13 -7 -2 -15 9 -6 4 -8 -16 -6 -35 4 -43 20 -21 42 21 20 41 21 49 1z m-877
-12 c-4 -3 -2 -12 4 -19 17 -20 3 -44 -26 -44 -14 0 -25 -4 -25 -10 0 -5 -7
-10 -16 -10 -11 0 -14 5 -10 16 3 9 6 20 6 25 0 5 6 9 14 9 7 0 16 9 19 20 3
11 13 20 23 20 9 0 14 -3 11 -7z m510 1 c-3 -3 -12 -4 -19 -1 -8 3 -5 6 6 6
11 1 17 -2 13 -5z m-268 -17 c13 -16 5 -28 -15 -20 -8 3 -14 0 -14 -6 0 -6 6
-11 13 -12 6 -1 1 -4 -13 -8 -34 -10 -46 17 -18 42 24 21 32 21 47 4z m192
-17 c5 0 9 7 9 15 0 12 8 14 43 9 54 -9 56 -11 16 -23 -19 -5 -26 -10 -16 -10
9 -1 17 -5 17 -9 0 -12 -50 -33 -61 -26 -5 3 -8 0 -7 -7 2 -6 -2 -13 -8 -16
-6 -2 -14 8 -16 22 -6 29 4 90 10 63 2 -10 8 -18 13 -18z m293 -6 c12 -32 -23
-49 -99 -49 -59 0 -69 -2 -56 -12 11 -9 12 -12 3 -13 -7 0 -11 -4 -8 -9 3 -4
-16 -15 -42 -23 -48 -16 -68 -15 -42 2 21 13 3 12 -22 -1 -11 -6 -22 -8 -25
-5 -10 10 19 36 41 37 13 0 16 3 7 6 -24 10 47 33 100 33 27 0 49 5 49 10 0 6
-6 10 -12 11 -16 1 61 27 83 28 9 1 20 -6 23 -15z m606 2 c0 -2 -8 -10 -17
-17 -16 -13 -17 -12 -4 4 13 16 21 21 21 13z m-1254 -41 c-3 -9 -17 -14 -33
-14 l-28 2 28 4 c19 3 27 10 28 26 0 12 3 16 6 9 3 -7 2 -19 -1 -27z m1174 10
c0 -8 -4 -15 -10 -15 -5 0 -7 7 -4 15 4 8 8 15 10 15 2 0 4 -7 4 -15z m-917
-1 c9 -9 -44 -64 -56 -57 -5 3 -13 0 -17 -8 -6 -9 -11 -5 -16 14 -8 33 -5 37
38 47 45 11 44 11 51 4z m1000 -37 c-9 -34 -23 -47 -49 -45 -29 3 -31 16 -5
26 11 4 20 10 20 15 1 12 25 35 33 31 3 -2 4 -14 1 -27z m-539 -4 c0 -16 -8
-29 -20 -34 -28 -11 -46 -11 -39 1 3 6 18 10 33 10 19 0 23 3 15 11 -6 6 -9
18 -6 25 9 23 19 16 17 -13z m-854 -7 c0 -2 -7 -17 -15 -32 -8 -16 -15 -23
-15 -15 0 9 -9 12 -29 9 -26 -4 -28 -2 -20 13 8 16 26 23 67 28 6 0 12 -1 12
-3z m213 -37 c-6 -6 -9 -18 -6 -25 3 -9 -2 -14 -17 -14 -16 0 -20 4 -16 16 4
12 2 15 -9 10 -8 -3 -15 -1 -15 4 0 6 6 10 14 10 7 0 19 7 26 15 9 11 16 13
24 5 7 -7 7 -13 -1 -21z m267 26 c0 -19 -26 -53 -51 -64 -25 -11 -31 -10 -46
5 -16 16 -16 16 5 10 17 -6 21 -4 16 8 -9 24 14 46 47 46 16 0 29 -2 29 -5z
m600 1 c0 -2 -7 -6 -15 -10 -8 -3 -15 -1 -15 4 0 6 7 10 15 10 8 0 15 -2 15
-4z m-370 -16 c13 -8 13 -10 -2 -10 -10 0 -19 -11 -23 -30 -5 -24 -12 -30 -34
-30 -23 0 -27 4 -26 23 1 12 -3 25 -9 29 -6 4 7 8 29 9 35 1 37 2 15 9 -24 8
-24 8 5 9 17 0 37 -4 45 -9z m-760 -30 c0 -5 -4 -10 -10 -10 -5 0 -10 5 -10
10 0 6 5 10 10 10 6 0 10 -4 10 -10z m966 1 c-19 -7 -19 -8 -1 -14 10 -4 15
-10 12 -13 -3 -3 -15 0 -27 6 -18 10 -20 14 -9 21 8 5 21 8 29 8 10 0 9 -3 -4
-8z m-856 -36 c0 -15 -6 -25 -15 -25 -10 0 -14 9 -13 25 1 14 8 25 15 25 7 0
13 -11 13 -25z m479 3 c10 -16 10 -23 2 -26 -6 -2 -9 -8 -5 -13 3 -5 -11 -9
-30 -9 -41 0 -47 18 -18 49 23 26 34 25 51 -1z m-239 2 c8 -5 13 -10 10 -11
-56 -9 -72 -5 -53 14 9 10 25 8 43 -3z m473 -28 c-3 -14 -11 -21 -19 -18 -8 3
-13 0 -11 -7 1 -7 -11 -13 -28 -14 -27 -2 -28 -2 -7 7 12 5 22 12 22 15 0 3
-10 10 -22 15 -21 8 -21 9 -3 10 11 0 29 7 39 15 24 18 37 8 29 -23z m547 10
c0 -23 -6 -30 -33 -40 -41 -15 -57 -15 -57 -2 0 6 7 10 15 10 8 0 15 8 15 18
0 15 28 37 53 41 4 0 7 -12 7 -27z m-1309 -25 c-13 -13 -26 -3 -16 12 3 6 11
8 17 5 6 -4 6 -10 -1 -17z m-846 -23 l-15 -29 0 27 c0 14 6 28 13 31 18 7 19
3 2 -29z m1235 5 c0 -17 -64 -49 -75 -38 -7 7 -4 13 8 20 9 6 17 16 17 24 0 7
6 15 13 18 13 5 37 -10 37 -24z m-506 15 c26 -10 19 -31 -16 -48 -42 -21 -47
-20 -44 10 4 36 27 50 60 38z m244 -22 c3 -11 -56 -47 -65 -39 -2 3 10 11 26
18 32 14 38 24 21 32 -6 3 -5 4 2 3 6 -1 13 -7 16 -14z m492 3 c-10 -12 -10
-15 1 -16 11 0 10 -2 -1 -6 -8 -4 -19 -12 -25 -19 -5 -7 -21 -14 -35 -16 -20
-2 -26 2 -28 21 -5 31 21 51 66 51 30 0 33 -2 22 -15z m-833 -41 c-3 -3 -12
-4 -19 -1 -8 3 -5 6 6 6 11 1 17 -2 13 -5z m173 -3 c0 -5 -9 -11 -20 -14 -11
-3 -20 -1 -20 3 0 5 8 11 18 13 9 3 18 5 20 6 1 0 2 -3 2 -8z m515 -1 c3 -5
-1 -10 -10 -10 -9 0 -14 -4 -10 -9 7 -12 -34 -41 -58 -41 -16 0 -17 3 -7 15
10 13 9 15 -11 15 -24 0 -24 0 3 14 15 8 38 17 50 19 13 2 26 5 30 6 4 0 10
-3 13 -9z m-267 -31 c-3 -8 -7 -3 -11 10 -4 17 -3 21 5 13 5 -5 8 -16 6 -23z
m707 12 c-3 -6 -14 -10 -23 -10 -15 1 -15 2 1 6 9 2 17 9 17 15 0 6 3 9 6 5 3
-3 3 -10 -1 -16z m341 8 c4 -6 10 -27 14 -45 6 -26 5 -34 -6 -34 -8 0 -14 10
-14 26 0 16 -4 23 -12 18 -8 -5 -9 0 -6 14 6 23 -7 31 -15 10 -2 -7 -8 -10
-12 -6 -11 11 4 28 25 28 10 0 22 -5 26 -11z m-572 -15 c4 -9 1 -23 -5 -30
-13 -16 -59 -19 -59 -4 0 6 14 10 30 10 17 0 30 4 30 8 0 5 -13 7 -30 4 -32
-5 -42 13 -12 21 32 9 40 7 46 -9z m506 -14 c0 -11 -5 -20 -12 -20 -6 0 -8 3
-5 7 4 3 2 12 -4 20 -9 10 -8 13 5 13 9 0 16 -8 16 -20z m-1000 0 c0 -5 -4
-10 -10 -10 -5 0 -10 5 -10 10 0 6 5 10 10 10 6 0 10 -4 10 -10z m345 0 c3 -5
1 -10 -4 -10 -6 0 -11 5 -11 10 0 6 2 10 4 10 3 0 8 -4 11 -10z m375 -20 c-24
-15 -37 -11 -16 5 11 8 22 12 25 9 3 -3 -1 -9 -9 -14z m-850 -10 c0 -22 -22
-36 -40 -25 -8 5 -6 13 6 26 22 25 34 24 34 -1z m230 2 c0 -21 -41 -47 -62
-39 -9 4 -8 6 4 6 12 1 15 7 11 24 -5 22 -5 22 11 2 17 -20 17 -20 13 3 -4 14
0 22 9 22 8 0 14 -8 14 -18z m260 1 c-1 -18 -29 -43 -49 -43 -11 0 -21 -4 -21
-10 0 -5 -5 -10 -11 -10 -8 0 -7 5 2 16 10 13 10 17 -2 25 -10 8 -8 9 9 4 12
-4 22 -2 22 4 0 8 16 16 43 20 4 0 7 -2 7 -6z m754 -15 c-3 -13 -7 -24 -8 -25
0 0 -17 -4 -37 -8 -31 -6 -37 -4 -42 14 -3 12 -1 19 4 15 5 -3 9 0 9 7 0 7 6
5 14 -6 15 -21 46 -14 46 10 0 8 5 15 11 15 6 0 8 -9 3 -22z m-564 -8 c0 -5
-2 -10 -4 -10 -3 0 -8 5 -11 10 -3 6 -1 10 4 10 6 0 11 -4 11 -10z m640 -29
c0 -18 -66 -36 -76 -20 -2 5 10 13 28 18 44 12 48 13 48 2z m-1520 -16 c-6 -8
-9 -19 -5 -24 3 -7 0 -8 -9 -5 -19 7 -20 11 -3 29 16 19 33 19 17 0z m47 -2
c2 -6 -5 -13 -17 -16 -22 -6 -23 -5 -14 18 7 17 25 16 31 -2z m462 4 c6 -8 8
-17 4 -20 -12 -12 -53 -7 -53 6 0 28 30 37 49 14z m211 7 c0 -13 -31 -35 -41
-29 -6 5 -4 12 8 21 19 14 33 18 33 8z m560 -8 c0 -7 -7 -19 -15 -26 -13 -10
-18 -11 -28 -1 -9 10 -8 15 7 27 25 18 36 18 36 0z m89 -54 c0 -15 -3 -21 -6
-14 -2 6 -12 12 -20 12 -12 0 -13 -3 -4 -13 8 -11 5 -16 -15 -25 -30 -14 -72
-16 -58 -3 5 5 18 11 29 14 15 4 14 5 -7 6 -37 1 -47 21 -11 22 16 0 22 3 13
6 -9 4 0 11 25 18 49 14 55 11 54 -23z m-1016 -16 c-22 -12 -63 -14 -63 -4 0
7 23 12 43 9 4 0 7 4 7 9 0 6 -5 10 -11 10 -5 0 -8 4 -4 10 3 5 14 2 25 -8 19
-15 19 -17 3 -26z m253 29 c14 -13 14 -15 1 -15 -25 0 -47 11 -41 21 8 13 23
11 40 -6z m807 8 c-7 -2 -19 -2 -25 0 -7 3 -2 5 12 5 14 0 19 -2 13 -5z m107
3 c0 -3 -4 -8 -10 -11 -5 -3 -10 -1 -10 4 0 6 5 11 10 11 6 0 10 -2 10 -4z
m-949 -26 c24 -13 24 -26 2 -34 -10 -3 -24 -9 -30 -12 -7 -3 -13 -1 -13 5 0 6
7 11 15 11 8 0 15 5 15 10 0 6 -9 10 -21 10 -11 0 -17 5 -14 10 8 13 21 13 46
0z m669 -54 c0 -2 -7 -7 -16 -10 -8 -3 -12 -2 -9 4 6 10 25 14 25 6z m-1414
-21 c-11 -8 -14 -15 -8 -15 7 0 12 -5 12 -11 0 -5 -5 -7 -12 -3 -7 5 -9 2 -5
-8 4 -11 0 -15 -11 -14 -9 2 -18 9 -20 16 -3 7 0 10 6 6 6 -3 13 -2 17 4 3 5
0 10 -7 10 -7 1 -2 7 12 15 32 19 40 18 16 0z m1393 -11 c28 -14 51 -29 51
-34 0 -18 -13 -40 -21 -35 -4 3 -17 0 -28 -7 -23 -14 -26 -12 -35 25 -4 19 -3
26 4 22 6 -3 10 3 10 15 0 12 -3 19 -7 17 -5 -3 -14 1 -21 9 -18 19 -11 18 47
-12z m199 14 c-6 -18 -28 -21 -28 -4 0 9 7 16 16 16 9 0 14 -5 12 -12z m-993
-8 c-3 -5 -12 -10 -18 -10 -7 0 -6 4 3 10 19 12 23 12 15 0z m745 -10 c0 -5
-5 -10 -11 -10 -5 0 -7 5 -4 10 3 6 8 10 11 10 2 0 4 -4 4 -10z m213 -11 c4
-16 3 -18 -9 -8 -7 6 -11 15 -8 20 8 13 11 11 17 -12z m-1616 -11 c2 -16 0
-19 -6 -9 -5 7 -15 10 -22 7 -8 -4 -5 0 5 8 11 9 20 16 21 16 0 0 2 -10 2 -22z
m1666 5 c-7 -2 -19 -2 -25 0 -7 3 -2 5 12 5 14 0 19 -2 13 -5z m-70 -38 c-3
-9 -8 -14 -10 -11 -3 3 -2 9 2 15 9 16 15 13 8 -4z m-33 -10 l1 20 9 -20 c13
-30 12 -35 -7 -36 -12 0 -13 -2 -5 -6 19 -7 -16 -32 -47 -33 -19 0 -21 3 -12
14 8 10 9 16 1 21 -16 10 -12 25 9 25 10 0 22 8 26 18 7 16 8 15 15 -3 l9 -20
1 20z m-1193 -11 c-3 -3 -12 -4 -19 -1 -8 3 -5 6 6 6 11 1 17 -2 13 -5z m963
-19 c0 -8 -7 -15 -16 -15 -14 0 -14 3 -4 15 7 8 14 15 16 15 2 0 4 -7 4 -15z
m90 -20 c0 -8 -4 -15 -9 -15 -5 0 -11 -11 -15 -23 -4 -19 -13 -24 -41 -25 -19
-1 -35 3 -35 9 0 6 6 9 14 6 7 -3 20 3 29 14 12 13 13 19 4 19 -6 0 -1 7 13
14 33 19 40 19 40 1z m-763 -11 c-3 -3 -12 -4 -19 -1 -8 3 -5 6 6 6 11 1 17
-2 13 -5z m783 -15 c0 -5 5 -7 12 -3 7 4 8 3 4 -5 -6 -9 -11 -9 -22 0 -11 9
-14 9 -14 -1 0 -8 -3 -11 -6 -7 -8 7 4 27 17 27 5 0 9 -5 9 -11z m-2455 -8 c3
-5 1 -12 -5 -16 -5 -3 -10 1 -10 9 0 18 6 21 15 7z m2470 -33 c3 -3 -6 -8 -20
-10 -23 -5 -32 2 -19 14 6 7 31 4 39 -4z m-1320 -28 c-3 -5 -12 -10 -18 -10
-7 0 -6 4 3 10 19 12 23 12 15 0z m65 6 c0 -3 -4 -8 -10 -11 -5 -3 -10 -1 -10
4 0 6 5 11 10 11 6 0 10 -2 10 -4z m1256 -5 c-4 -5 -1 -11 6 -13 7 -3 5 -7 -6
-11 -10 -4 -15 -3 -11 3 3 6 1 10 -4 10 -6 0 -11 5 -11 10 0 6 7 10 16 10 8 0
13 -4 10 -9z m-106 -20 c0 -5 -7 -17 -16 -25 -8 -9 -12 -20 -9 -26 3 -5 0 -10
-8 -10 -11 0 -37 46 -37 64 0 1 16 3 35 4 19 2 35 -2 35 -7z m-70 -20 c0 -5 3
-18 7 -28 6 -17 6 -17 -10 -1 -19 18 -22 38 -7 38 6 0 10 -4 10 -9z m-15 -39
c-7 -8 -35 7 -35 18 0 6 7 6 20 -2 10 -7 17 -14 15 -16z m151 -4 c5 -7 2 -9
-8 -6 -8 4 -20 -2 -27 -14 -7 -11 -19 -17 -27 -14 -8 3 -14 -1 -14 -9 0 -7 -4
-16 -9 -20 -6 -3 -6 7 0 27 5 18 9 34 9 35 0 3 34 11 52 12 9 0 20 -4 24 -11z
m-156 -43 c-7 -8 -17 -15 -23 -15 -5 0 -2 9 8 20 21 23 35 19 15 -5z m-80 5
c0 -5 -4 -10 -10 -10 -5 0 -10 5 -10 10 0 6 5 10 10 10 6 0 10 -4 10 -10z
m200 -10 c0 -5 -8 -10 -17 -10 -15 0 -16 2 -3 10 19 12 20 12 20 0z m-23 -52
c-3 -8 -6 -5 -6 6 -1 11 2 17 5 13 3 -3 4 -12 1 -19z m-990 6 c-3 -3 -12 -4
-19 -1 -8 3 -5 6 6 6 11 1 17 -2 13 -5z m-11 -31 c-8 -8 -36 5 -36 17 0 7 6 7
21 0 11 -7 18 -14 15 -17z m934 18 c0 -5 -10 -11 -22 -14 -22 -6 -22 -6 -4 8
23 17 26 18 26 6z m29 -34 c1 -5 -4 -5 -11 -1 -8 5 -9 2 -5 -9 3 -10 2 -17 -3
-17 -6 0 -10 5 -10 11 0 6 -7 9 -15 5 -8 -3 -15 -1 -15 4 0 6 9 10 20 10 14 0
20 7 21 23 0 21 1 21 9 2 5 -11 9 -24 9 -28z m-94 3 c-3 -5 -11 -10 -16 -10
-6 0 -7 5 -4 10 3 6 11 10 16 10 6 0 7 -4 4 -10z m-1699 -60 c12 0 26 -11 34
-24 7 -14 23 -27 35 -30 17 -4 26 -19 38 -63 23 -81 62 -136 90 -128 25 7 62
22 91 37 10 5 21 6 25 1 9 -12 153 -14 167 -2 8 7 15 6 20 -2 4 -7 3 -9 -4 -5
-6 3 -14 2 -17 -4 -9 -15 14 -40 31 -33 9 3 14 -1 14 -12 0 -9 -4 -14 -9 -10
-5 3 -12 2 -15 -3 -2 -4 4 -14 16 -21 11 -7 17 -8 13 -2 -3 7 2 11 14 11 11 0
22 4 25 9 4 5 14 8 24 6 9 -2 25 -4 35 -4 31 -2 18 -21 -15 -21 -18 -1 -49 -9
-68 -20 l-35 -18 40 3 c22 1 31 0 20 -2 -33 -8 -37 -27 -7 -34 27 -7 27 -7 -5
-8 -34 -1 -56 -20 -26 -22 10 -1 5 -5 -12 -8 -30 -7 -30 -8 15 -19 l45 -12
-41 4 -41 4 2 -44 c0 -23 -2 -41 -6 -38 -4 2 -9 -5 -12 -17 -4 -14 4 -30 26
-51 18 -17 24 -29 15 -25 -12 4 -15 2 -11 -9 3 -7 9 -14 14 -14 5 0 13 -8 16
-17 4 -9 16 -28 27 -42 65 -77 79 -91 93 -91 8 0 26 -9 40 -20 14 -11 37 -20
50 -20 14 0 21 -4 18 -10 -4 -6 -11 -8 -16 -5 -5 4 -16 -1 -25 -9 -14 -15 -14
-17 0 -22 9 -3 16 -16 16 -28 0 -18 2 -19 11 -6 9 12 9 11 4 -5 -13 -35 -12
-58 3 -88 8 -15 12 -29 11 -30 -38 -20 -42 -26 -43 -62 -1 -22 2 -46 7 -52 6
-8 6 -13 -1 -13 -7 0 -7 -9 0 -28 9 -22 7 -37 -11 -76 -26 -59 -26 -66 -3 -67
10 0 12 -3 5 -6 -7 -2 -13 -20 -13 -39 0 -19 -4 -34 -10 -34 -5 0 -10 -19 -10
-42 0 -32 -3 -39 -10 -28 -8 12 -11 11 -16 -8 -4 -14 -12 -21 -20 -18 -7 3
-16 1 -20 -5 -3 -6 -13 -8 -21 -4 -14 5 -78 -35 -94 -58 -4 -6 -20 -3 -39 7
-18 8 -55 18 -83 22 -28 3 -54 7 -58 10 -4 2 -10 -2 -12 -8 -3 -7 -6 -2 -6 11
-1 16 -5 21 -16 17 -11 -4 -21 6 -33 31 -18 37 -106 133 -123 133 -6 0 -7 -9
-4 -21 6 -19 5 -20 -15 -9 -12 7 -25 21 -27 31 -3 10 -9 19 -14 19 -5 0 -6 -7
-3 -15 4 -8 1 -22 -6 -30 -10 -12 -10 -21 0 -45 7 -16 16 -30 21 -30 5 0 14
-12 19 -26 6 -14 19 -28 30 -31 11 -3 20 -9 20 -14 0 -5 5 -9 10 -9 13 0 50
-37 50 -50 0 -5 7 -10 16 -10 11 0 15 -6 11 -20 -3 -11 -1 -18 4 -14 5 3 8 -5
8 -18 -1 -13 3 -36 10 -51 6 -16 8 -33 5 -39 -4 -6 -7 -24 -6 -39 1 -26 -3
-30 -36 -35 -30 -5 -45 -16 -80 -62 -30 -39 -41 -61 -37 -76 5 -18 5 -19 -5
-4 -13 21 -40 13 -40 -12 0 -10 -8 -21 -17 -25 -14 -5 -15 -4 -6 6 15 15 -1
39 -26 39 -9 0 -35 9 -58 19 -37 17 -43 25 -59 78 -9 32 -19 63 -20 68 -2 6
-10 36 -18 68 -8 32 -19 64 -25 70 -5 7 -8 22 -7 32 2 11 1 24 -2 30 -3 5 -7
18 -7 27 -1 15 5 17 39 14 23 -3 51 -8 64 -12 13 -4 22 -2 22 4 0 6 9 14 20
17 11 3 20 15 20 26 0 10 7 19 15 19 8 0 15 5 15 11 0 6 -7 8 -17 5 -16 -6
-16 -6 0 12 22 24 21 29 -4 35 -14 4 -18 10 -13 19 14 22 13 38 -2 38 -9 0
-12 5 -8 12 4 6 3 8 -4 5 -5 -4 -17 -4 -26 -1 -13 5 -14 9 -5 20 9 11 8 14 -5
14 -9 0 -16 -4 -16 -10 0 -5 -6 -10 -12 -10 -7 1 1 12 17 26 27 22 28 26 13
35 -10 5 -18 16 -18 24 0 9 -6 12 -17 9 -14 -4 -12 -1 5 14 13 13 18 23 12 27
-6 3 -8 10 -5 14 2 5 -12 7 -33 5 l-37 -2 30 16 c24 13 26 17 13 20 -22 4 -24
22 -3 22 8 0 15 5 15 10 0 6 -6 10 -12 10 -9 0 -8 4 2 10 12 7 12 10 1 10 -7
0 -11 6 -7 15 3 8 1 15 -5 15 -6 0 -8 9 -4 21 7 20 5 21 -21 15 -28 -7 -28 -7
-9 8 18 14 18 15 2 16 -10 0 -29 12 -42 26 -13 14 -29 23 -34 19 -6 -3 -11 -1
-11 5 0 18 -50 32 -66 19 -12 -10 -13 -9 -8 5 8 20 -14 48 -30 39 -6 -3 -7 -2
-3 3 12 12 30 12 39 -1 5 -6 8 -6 8 2 0 14 -37 36 -48 29 -4 -2 -9 4 -9 16 -1
12 3 18 11 15 6 -3 13 3 13 14 1 12 -3 16 -14 12 -13 -5 -14 -3 -3 17 11 21
10 22 -6 16 -10 -4 -21 -1 -25 6 -6 9 -12 7 -26 -8 -10 -11 -14 -13 -8 -4 17
27 46 52 53 45 3 -3 0 -10 -8 -15 -9 -6 -10 -10 -3 -10 16 0 28 21 25 41 -2 9
5 19 14 23 14 5 15 4 4 -9 -8 -10 -9 -15 -1 -15 18 0 26 4 24 12 -2 4 4 5 12
2 9 -4 15 0 15 7 0 9 3 10 8 4 9 -13 35 -18 27 -5 -3 5 -2 10 3 10 5 0 20 9
33 21 14 12 18 19 9 18 -8 -2 -16 0 -17 5 -1 5 -7 12 -14 16 -9 6 -8 12 4 25
20 19 22 36 6 52 -8 8 -4 15 13 27 19 14 21 18 8 26 -8 5 -10 10 -5 10 6 0 16
-5 23 -12 9 -9 12 -8 12 5 0 9 3 17 8 17 4 0 12 10 17 23 6 12 17 22 25 22 29
1 60 16 60 30 0 9 6 12 15 8 10 -3 15 -1 13 7 -2 7 8 14 21 16 33 6 36 11 20
30 -13 16 -11 17 14 10 26 -6 40 8 15 16 -8 3 -8 9 0 24 10 17 11 17 12 2 0
-20 15 -24 26 -7 6 11 -12 29 -29 29 -4 0 -19 -11 -32 -24 -13 -13 -27 -21
-31 -17 -4 3 -4 -6 0 -21 4 -17 2 -28 -4 -28 -5 0 -10 5 -10 10 0 6 -4 10 -10
10 -5 0 -10 -7 -10 -15 0 -8 -4 -15 -10 -15 -5 0 -10 8 -10 19 0 10 -7 24 -15
31 -8 7 -15 21 -15 32 0 10 -4 16 -10 13 -5 -3 -10 0 -10 7 0 8 -11 29 -24 47
-20 27 -23 38 -15 64 5 17 6 40 3 49 -3 10 -1 18 5 18 6 0 11 7 11 16 0 8 -4
12 -10 9 -5 -3 -10 -1 -10 4 0 6 9 16 19 23 10 6 17 18 14 25 -3 7 -1 13 5 13
6 0 12 -6 15 -12 3 -10 9 -8 23 4 17 17 19 17 39 -2 12 -11 30 -20 41 -20z
m844 30 c0 -5 -2 -10 -4 -10 -3 0 -8 5 -11 10 -3 6 -1 10 4 10 6 0 11 -4 11
-10z m792 -8 c-7 -2 -10 -7 -8 -10 2 -4 -3 -14 -12 -22 -14 -13 -15 -12 -10 2
4 8 1 21 -5 27 -9 9 -8 11 6 6 10 -4 17 -2 17 5 0 6 5 8 12 4 9 -6 9 -9 0 -12z
m-789 -29 c-7 -2 -19 -2 -25 0 -7 3 -2 5 12 5 14 0 19 -2 13 -5z m865 -20 c-9
-10 -14 -23 -11 -29 2 -6 -2 -11 -9 -11 -7 0 -22 -4 -33 -8 -20 -7 -20 -7 0
10 17 14 18 17 5 25 -8 5 -19 10 -25 11 -16 2 38 17 64 18 22 1 23 0 9 -16z
m-872 -38 c-23 -17 -36 -19 -36 -6 0 5 8 12 18 14 32 9 37 6 18 -8z m-1852
-41 c3 -8 12 -14 21 -14 8 0 15 -7 15 -15 0 -9 -6 -12 -15 -9 -9 4 -15 0 -15
-10 0 -9 8 -16 20 -16 22 0 27 -16 8 -23 -20 -6 -58 23 -58 44 0 13 -7 19 -21
19 -11 0 -18 4 -15 9 4 5 0 11 -6 14 -8 3 -3 9 12 15 29 11 46 7 54 -14z m-98
-4 c8 0 14 -5 14 -11 0 -6 -9 -8 -22 -4 -22 7 -22 6 -4 -7 22 -17 14 -38 -14
-38 -25 0 -33 15 -26 46 5 18 12 24 22 20 9 -3 22 -6 30 -6z m1884 0 c0 -5
-10 -10 -22 -10 -19 0 -20 2 -8 10 19 13 30 13 30 0z m37 -12 c-3 -8 -6 -5 -6
6 -1 11 2 17 5 13 3 -3 4 -12 1 -19z m-1846 -51 c16 -31 15 -33 -7 -50 -33
-25 -63 -22 -61 6 2 23 34 77 46 77 3 0 13 -15 22 -33z m1909 -3 c14 -7 20
-13 13 -14 -8 0 -10 -7 -6 -17 6 -16 5 -16 -11 -4 -9 8 -35 14 -56 13 -22 -1
-40 2 -40 8 0 5 6 7 14 4 8 -3 23 -1 33 5 15 9 11 11 -22 12 -56 3 -55 3 -105
-5 -56 -9 -48 2 11 13 53 11 135 4 169 -15z m605 -23 c-3 -6 -11 -11 -16 -11
-5 0 -4 6 3 14 14 16 24 13 13 -3z m-765 -1 c-8 -5 -24 -9 -35 -9 -16 1 -16 2
5 9 35 11 48 11 30 0z m47 4 c-3 -3 -12 -4 -19 -1 -8 3 -5 6 6 6 11 1 17 -2
13 -5z m-1927 -18 c0 -24 -26 -65 -43 -68 -33 -6 -54 2 -36 13 12 8 12 11 -1
18 -16 11 -15 13 15 29 19 11 65 16 65 8z m1820 -1 c0 -2 -25 -12 -55 -20 -37
-11 -53 -20 -48 -28 3 -7 -3 -4 -15 6 -12 11 -26 16 -33 11 -8 -4 -10 -3 -5 4
4 7 17 10 29 7 12 -3 42 1 67 9 52 16 60 18 60 11z m-1604 -27 c-3 -13 -5 -25
-5 -27 -1 -3 -6 0 -13 7 -8 8 -8 15 2 27 17 21 21 19 16 -7z m1689 -6 c-3 -3
-11 0 -18 7 -9 10 -8 11 6 5 10 -3 15 -9 12 -12z m-1739 -38 c-3 -8 -10 -12
-16 -9 -7 4 -6 14 2 28 12 24 24 8 14 -19z m1814 26 c13 -9 13 -10 0 -10 -8 0
-22 5 -30 10 -13 9 -13 10 0 10 8 0 22 -5 30 -10z m-1708 -47 c2 -21 -3 -31
-21 -41 -26 -13 -45 -7 -21 8 12 8 12 10 -3 15 -15 6 -14 9 6 26 30 25 35 24
39 -8z m1635 19 c6 -4 -9 -8 -33 -9 -24 -1 -46 3 -49 8 -7 11 65 12 82 1z
m-1771 -70 c0 -20 -1 -31 -4 -24 -3 10 -7 9 -17 -4 -7 -10 -19 -15 -28 -11
-22 8 -10 45 22 62 14 8 26 14 26 15 0 0 0 -17 1 -38z m1702 31 c-10 -2 -26
-2 -35 0 -10 3 -2 5 17 5 19 0 27 -2 18 -5z m55 0 c-7 -2 -19 -2 -25 0 -7 3
-2 5 12 5 14 0 19 -2 13 -5z m-1896 -58 c-4 -8 -2 -17 4 -20 13 -9 -15 -35
-38 -35 -12 0 -18 8 -19 25 -2 21 16 36 55 44 2 1 1 -6 -2 -14z m-277 -25 c0
-5 -5 -10 -11 -10 -5 0 -7 5 -4 10 3 6 8 10 11 10 2 0 4 -4 4 -10z m117 -18
c15 -9 6 -52 -11 -52 -24 0 -53 40 -39 54 9 8 36 7 50 -2z m453 -20 c0 -4 -6
-14 -12 -20 -10 -10 -10 -15 1 -21 9 -6 6 -10 -13 -13 -22 -4 -26 -2 -26 18 0
13 8 28 18 33 21 13 32 14 32 3z m-590 -26 c0 -14 -7 -26 -17 -30 -10 -3 -22
-8 -28 -11 -13 -7 -14 48 0 57 22 16 45 8 45 -16z m-157 -21 c1 -5 -6 -11 -15
-13 -11 -2 -18 3 -18 13 0 17 30 18 33 0z m-6 -31 c-3 -3 -12 -4 -19 -1 -8 3
-5 6 6 6 11 1 17 -2 13 -5z m573 -24 c0 -5 -5 -10 -11 -10 -5 0 -7 5 -4 10 3
6 8 10 11 10 2 0 4 -4 4 -10z m-110 -18 c0 -27 -10 -33 -26 -17 -20 20 -17 35
6 35 13 0 20 -7 20 -18z m2177 -8 c-3 -3 -12 -4 -19 -1 -8 3 -5 6 6 6 11 1 17
-2 13 -5z m-2343 -22 c2 -4 -2 -15 -9 -25 -12 -16 -13 -16 -17 8 -5 24 14 36
26 17z m586 -6 c-7 -7 -13 -7 -20 0 -6 6 -3 10 10 10 13 0 16 -4 10 -10z
m-130 -14 c0 -4 -5 -13 -12 -20 -9 -9 -9 -12 2 -12 7 0 11 -3 7 -6 -3 -3 -15
1 -27 9 -21 14 -21 16 -3 26 22 13 33 14 33 3z m620 -16 c0 -2 -7 -7 -16 -10
-8 -3 -12 -2 -9 4 6 10 25 14 25 6z m-650 -36 c0 -5 -2 -10 -4 -10 -3 0 -8 5
-11 10 -3 6 -1 10 4 10 6 0 11 -4 11 -10z m34 -125 c-4 -8 -8 -15 -10 -15 -2
0 -4 7 -4 15 0 8 4 15 10 15 5 0 7 -7 4 -15z m-539 -393 c-6 -7 -34 11 -29 19
3 5 11 3 19 -4 7 -6 12 -13 10 -15z m-151 -53 c-3 -5 -11 -9 -19 -9 -8 0 -16
4 -19 9 -3 5 5 9 19 9 14 0 22 -4 19 -9z m82 -4 c-16 -12 -17 -17 -6 -30 8
-10 20 -13 34 -9 21 7 21 6 2 -15 -19 -21 -43 -30 -31 -12 9 16 -16 25 -27 10
-7 -10 -7 -7 -3 9 4 13 2 22 -4 22 -6 0 -11 -9 -11 -19 0 -17 -3 -18 -25 -8
-14 7 -25 15 -25 19 0 6 30 19 57 24 6 1 19 7 30 13 26 15 31 13 9 -4z m94
-50 c0 -3 -3 -4 -7 -4 -17 3 -33 -1 -31 -8 3 -15 -14 -43 -23 -37 -15 9 -10
24 7 24 8 0 13 4 9 9 -3 5 -1 12 5 16 6 4 7 11 4 17 -4 6 2 6 15 -1 11 -7 21
-14 21 -16z m0 -45 c0 -5 -4 -10 -9 -10 -6 0 -13 5 -16 10 -3 6 1 10 9 10 9 0
16 -4 16 -10z m-185 -390 c-3 -5 -10 -10 -16 -10 -5 0 -9 5 -9 10 0 6 7 10 16
10 8 0 12 -4 9 -10z m3085 -181 c0 -5 -14 -9 -31 -9 -16 0 -28 3 -26 8 7 10
57 12 57 1z m-1413 -39 c-1 -12 -5 -16 -10 -11 -5 5 -6 14 -3 20 11 16 15 13
13 -9z m1406 13 c-13 -2 -33 -2 -45 0 -13 2 -3 4 22 4 25 0 35 -2 23 -4z
m-2163 -27 c0 -3 -4 -8 -10 -11 -5 -3 -10 -1 -10 4 0 6 5 11 10 11 6 0 10 -2
10 -4z m-427 -80 c4 -10 1 -13 -9 -9 -7 3 -14 9 -14 14 0 14 17 10 23 -5z
m874 -132 c-3 -3 -12 -4 -19 -1 -8 3 -5 6 6 6 11 1 17 -2 13 -5z m1717 -59
c-4 -8 -8 -15 -10 -15 -2 0 -4 7 -4 15 0 8 4 15 10 15 5 0 7 -7 4 -15z m-47
-27 c-3 -8 -6 -5 -6 6 -1 11 2 17 5 13 3 -3 4 -12 1 -19z m-637 -12 c0 -9 -30
-14 -35 -6 -4 6 3 10 14 10 12 0 21 -2 21 -4z m-525 -196 c3 -6 -1 -7 -9 -4
-18 7 -21 14 -7 14 6 0 13 -4 16 -10z m139 -49 c3 -5 -3 -11 -13 -14 -14 -3
-18 -1 -14 9 6 16 19 18 27 5z"/>
<path d="M3025 3680 c-3 -5 -1 -10 4 -10 6 0 11 5 11 10 0 6 -2 10 -4 10 -3 0
-8 -4 -11 -10z"/>
<path d="M2630 3450 c-13 -8 -12 -10 3 -10 9 0 17 5 17 10 0 12 -1 12 -20 0z"/>
<path d="M1967 2323 c-15 -24 -27 -50 -27 -59 0 -8 -6 -14 -12 -11 -7 2 -20
-1 -28 -8 -11 -9 -29 -11 -65 -5 -49 8 -65 6 -65 -8 0 -12 59 -34 83 -30 37 4
60 -26 52 -68 -6 -34 -5 -35 17 -29 13 4 28 13 33 19 6 7 15 11 21 9 7 -2 18
2 25 10 8 7 20 12 27 9 11 -3 13 2 11 26 0 4 -7 6 -15 4 -9 -2 -14 5 -14 20 0
19 -2 20 -10 8 -6 -10 -10 -11 -10 -2 0 6 -8 12 -17 12 -13 0 -14 3 -5 12 7 7
12 21 12 33 0 12 5 26 11 32 6 6 9 23 7 39 l-3 29 -28 -42z"/>
<path d="M1993 995 c-7 -8 -9 -16 -4 -19 5 -3 12 1 15 10 8 22 4 25 -11 9z"/>
<path d="M706 2661 c-3 -5 1 -11 9 -14 9 -4 12 -1 8 9 -6 16 -10 17 -17 5z"/>
<path d="M2608 2573 c7 -3 16 -2 19 1 4 3 -2 6 -13 5 -11 0 -14 -3 -6 -6z"/>
<path d="M3133 3993 c21 -5 22 -22 2 -29 -36 -14 -9 -19 55 -10 39 5 70 14 70
19 0 5 -13 7 -30 5 -20 -3 -30 0 -30 9 0 9 -13 13 -42 12 -24 -1 -35 -3 -25
-6z"/>
<path d="M450 3960 c0 -11 2 -20 4 -20 2 0 6 9 9 20 3 11 1 20 -4 20 -5 0 -9
-9 -9 -20z"/>
<path d="M1585 3950 c3 -5 8 -10 11 -10 2 0 4 5 4 10 0 6 -5 10 -11 10 -5 0
-7 -4 -4 -10z"/>
<path d="M1900 3940 c0 -5 4 -10 9 -10 6 0 13 5 16 10 3 6 -1 10 -9 10 -9 0
-16 -4 -16 -10z"/>
<path d="M275 3910 c3 -5 8 -10 11 -10 2 0 4 5 4 10 0 6 -5 10 -11 10 -5 0 -7
-4 -4 -10z"/>
<path d="M1591 3874 c0 -11 3 -14 6 -6 3 7 2 16 -1 19 -3 4 -6 -2 -5 -13z"/>
<path d="M1757 3873 c-12 -12 -7 -22 8 -17 8 4 15 10 15 15 0 11 -14 12 -23 2z"/>
<path d="M1018 3853 c7 -3 16 -2 19 1 4 3 -2 6 -13 5 -11 0 -14 -3 -6 -6z"/>
<path d="M2335 3840 c-3 -5 1 -10 10 -10 9 0 13 5 10 10 -3 6 -8 10 -10 10 -2
0 -7 -4 -10 -10z"/>
<path d="M1330 3830 c0 -5 5 -10 10 -10 6 0 10 5 10 10 0 6 -4 10 -10 10 -5 0
-10 -4 -10 -10z"/>
<path d="M1641 3808 c-1 -10 -8 -18 -16 -18 -8 0 -15 -5 -15 -11 0 -5 5 -7 11
-3 6 3 15 1 19 -6 11 -18 19 10 9 35 -6 17 -8 17 -8 3z"/>
<path d="M2250 3730 c-21 -17 -22 -20 -7 -20 17 0 47 22 47 34 0 11 -15 6 -40
-14z"/>
<path d="M2361 3694 c0 -11 3 -14 6 -6 3 7 2 16 -1 19 -3 4 -6 -2 -5 -13z"/>
<path d="M2250 3675 c0 -8 2 -15 4 -15 2 0 6 7 10 15 3 8 1 15 -4 15 -6 0 -10
-7 -10 -15z"/>
<path d="M1345 3661 c-3 -5 -1 -12 5 -16 5 -3 10 1 10 9 0 18 -6 21 -15 7z"/>
<path d="M1432 3614 c-7 -8 -8 -14 -3 -14 10 0 25 19 20 25 -2 1 -10 -3 -17
-11z"/>
<path d="M1215 3587 c-4 -10 -5 -21 -1 -24 10 -10 18 4 13 24 -4 17 -4 17 -12
0z"/>
<path d="M1561 3504 c0 -11 3 -14 6 -6 3 7 2 16 -1 19 -3 4 -6 -2 -5 -13z"/>
<path d="M1357 3493 c-12 -12 -7 -22 8 -17 8 4 15 10 15 15 0 11 -14 12 -23 2z"/>
<path d="M915 3450 c-3 -5 1 -10 9 -10 9 0 16 5 16 10 0 6 -4 10 -9 10 -6 0
-13 -4 -16 -10z"/>
<path d="M1086 3361 c-4 -7 -5 -15 -2 -18 9 -9 19 4 14 18 -4 11 -6 11 -12 0z"/>
<path d="M601 2734 c0 -11 3 -14 6 -6 3 7 2 16 -1 19 -3 4 -6 -2 -5 -13z"/>
<path d="M327 2459 c8 -8 16 -8 30 0 16 9 14 10 -11 11 -22 0 -27 -3 -19 -11z"/>
<path d="M155 1650 c2 -27 10 -33 12 -10 1 11 -2 22 -6 24 -4 3 -7 -4 -6 -14z"/>
<path d="M53 1543 c9 -2 23 -2 30 0 6 3 -1 5 -18 5 -16 0 -22 -2 -12 -5z"/>
<path d="M3521 1504 c0 -11 3 -14 6 -6 3 7 2 16 -1 19 -3 4 -6 -2 -5 -13z"/>
<path d="M3480 1409 c0 -5 5 -7 10 -4 6 3 10 8 10 11 0 2 -4 4 -10 4 -5 0 -10
-5 -10 -11z"/>
<path d="M2 965 c1 -41 18 -56 18 -17 1 16 1 16 11 0 10 -18 37 -22 77 -12 31
9 28 21 -8 29 -16 4 -30 11 -30 16 0 5 -9 9 -19 9 -11 0 -23 5 -26 10 -14 23
-25 7 -23 -35z"/>
<path d="M3040 581 c0 -5 7 -11 15 -15 8 -3 15 -1 15 3 0 5 -7 11 -15 15 -8 3
-15 1 -15 -3z"/>
<path d="M3966 405 c4 -8 8 -15 10 -15 2 0 4 7 4 15 0 8 -4 15 -10 15 -5 0 -7
-7 -4 -15z"/>
<path d="M1481 383 c0 -10 3 -13 6 -6 3 9 18 11 49 6 30 -4 44 -2 44 6 0 7
-19 11 -50 11 -41 0 -50 -3 -49 -17z"/>
<path d="M2548 393 c7 -3 16 -2 19 1 4 3 -2 6 -13 5 -11 0 -14 -3 -6 -6z"/>
<path d="M2345 350 c-3 -5 1 -10 9 -10 9 0 16 5 16 10 0 6 -4 10 -9 10 -6 0
-13 -4 -16 -10z"/>
<path d="M3969 310 c-8 -19 1 -78 16 -107 11 -21 12 -17 14 34 0 38 -2 53 -8
44 -7 -11 -10 -7 -13 15 -2 18 -5 24 -9 14z"/>
<path d="M2363 253 c9 -2 23 -2 30 0 6 3 -1 5 -18 5 -16 0 -22 -2 -12 -5z"/>
<path d="M1938 133 c6 -2 18 -2 25 0 6 3 1 5 -13 5 -14 0 -19 -2 -12 -5z"/>
<path d="M3950 102 c1 -18 30 -63 30 -46 0 5 5 2 10 -6 7 -12 10 -8 10 15 0
22 -7 33 -25 42 -21 9 -25 9 -25 -5z"/>
</g>
</svg>
